<svg xmlns="http://www.w3.org/2000/svg" xmlns:xlink="http://www.w3.org/1999/xlink" width="1920" zoomAndPan="magnify" viewBox="0 0 1440 809.999993" height="1080" preserveAspectRatio="xMidYMid meet" version="1.0"><defs><clipPath id="52ebb71a0e"><path d="M 356.238281 0 L 1083.738281 0 L 1083.738281 802.722656 L 356.238281 802.722656 Z M 356.238281 0 " clip-rule="nonzero"/></clipPath></defs><path fill="#f5f5f5" d="M 747.121094 800.21875 C 739.675781 800.21875 732.21875 798.289062 725.542969 794.429688 L 372.636719 590.691406 C 363.984375 585.691406 358.648438 576.460938 358.648438 566.460938 C 358.648438 556.460938 363.984375 547.234375 372.636719 542.230469 L 376.527344 539.980469 L 759.695312 568.839844 C 755.949219 581.75 752.925781 594.917969 750.257812 607.957031 C 746.734375 625.179688 745.867188 644.617188 747.105469 662.140625 L 747.105469 800.21875 Z M 747.121094 800.21875 " fill-opacity="1" fill-rule="nonzero"/><path fill="#000000" d="M 1056.539062 617.316406 C 1056.539062 624.085938 1052.9375 630.339844 1047.070312 633.714844 L 768.699219 794.445312 C 762.027344 798.304688 754.566406 800.234375 747.121094 800.234375 L 747.121094 662.15625 C 745.898438 644.632812 746.75 625.179688 750.273438 607.976562 C 752.941406 594.9375 755.964844 581.769531 759.710938 568.855469 L 1047.070312 590.496094 C 1052.921875 593.875 1056.539062 600.128906 1056.539062 606.898438 Z M 1056.539062 617.316406 " fill-opacity="1" fill-rule="nonzero"/><path fill="#000000" d="M 1012.214844 575.980469 L 954.140625 542.472656 C 952.324219 541.269531 951.101562 539.128906 951.101562 536.621094 C 951.101562 531.492188 954.011719 523.597656 960.894531 519.996094 C 963.496094 518.628906 966.246094 518.886719 968.175781 520.429688 L 1025.910156 553.777344 M 767.621094 404.78125 L 709.886719 371.4375 C 707.941406 369.894531 705.191406 369.636719 702.601562 371.003906 C 695.71875 374.605469 692.808594 382.515625 692.808594 387.628906 C 692.808594 390.136719 694.015625 392.273438 695.847656 393.480469 L 753.921875 426.984375 M 1068.953125 569.660156 C 1076.636719 565.222656 1081.378906 557.023438 1081.378906 548.148438 L 1081.378906 239.855469 C 1081.378906 232.605469 1079.433594 225.609375 1075.929688 219.550781 L 1045.527344 237.105469 C 1003.128906 254.164062 968.53125 282.863281 934.558594 313.429688 C 920.890625 325.726562 907.082031 338.269531 893.992188 351.421875 L 1043.566406 569.339844 L 1044.113281 569.660156 C 1051.796875 574.097656 1061.265625 574.097656 1068.953125 569.660156 Z M 812.285156 746.46875 L 786.832031 761.164062 C 784.871094 762.304688 783.648438 764.394531 783.648438 766.664062 L 783.648438 771.085938 C 783.648438 773.960938 786.753906 775.746094 789.246094 774.316406 L 814.777344 759.574219 C 816.691406 758.464844 817.878906 756.421875 817.878906 754.203125 L 817.878906 749.683594 C 817.878906 746.824219 814.777344 745.023438 812.285156 746.46875 Z M 859.761719 719.023438 L 832.992188 734.476562 C 831.835938 735.132812 831.128906 736.371094 831.128906 737.707031 L 831.128906 743.65625 C 831.128906 746.535156 834.230469 748.320312 836.722656 746.886719 L 862.253906 732.144531 C 864.167969 731.035156 865.359375 728.992188 865.359375 726.773438 L 865.359375 722.257812 C 865.375 719.378906 862.253906 717.578125 859.761719 719.023438 Z M 1002.695312 651.175781 L 1008.804688 647.65625 L 1008.804688 631.578125 L 1002.695312 635.097656 Z M 1014.898438 644.117188 L 1021.007812 640.597656 L 1021.007812 624.519531 L 1014.898438 628.039062 Z M 1027.117188 637.058594 L 1033.226562 633.539062 L 1033.226562 617.460938 L 1027.117188 620.980469 Z M 990.476562 658.21875 L 996.585938 654.695312 L 996.585938 638.617188 L 990.476562 642.140625 Z M 1039.335938 613.921875 L 1039.335938 630 L 1045.527344 626.433594 L 1045.527344 610.355469 Z M 1039.335938 613.921875 " fill-opacity="1" fill-rule="nonzero"/><path fill="#000000" d="M 1028.417969 559.789062 C 1028.417969 566.203125 1023.820312 572.941406 1018.820312 575.769531 C 1013.820312 578.601562 1008.757812 575 1008.757812 569.871094 C 1008.757812 564.742188 1011.667969 556.847656 1018.546875 553.246094 C 1023.226562 550.785156 1028.417969 553.582031 1028.417969 559.789062 Z M 760.242188 404.269531 C 753.359375 407.871094 750.449219 415.78125 750.449219 420.894531 C 750.449219 426.003906 755.53125 429.621094 760.515625 426.792969 C 765.5 423.964844 770.113281 417.226562 770.113281 410.8125 C 770.113281 404.605469 764.917969 401.808594 760.242188 404.269531 Z M 760.242188 404.269531 " fill-opacity="1" fill-rule="nonzero"/><path fill="#000000" d="M 893.976562 351.402344 L 668.066406 22.257812 L 668.066406 20.296875 C 668.066406 11.726562 672.632812 3.816406 680.042969 -0.460938 C 687.441406 -4.738281 696.554688 -4.738281 703.96875 -0.492188 L 1061.042969 204.710938 C 1067.328125 208.328125 1072.410156 213.472656 1075.929688 219.550781 L 1045.527344 237.105469 C 1003.128906 254.164062 968.53125 282.863281 934.558594 313.429688 C 920.875 325.710938 907.078125 338.269531 893.976562 351.402344 Z M 657.777344 377.609375 L 376.527344 539.980469 C 368.585938 544.5625 368.585938 556.042969 376.527344 560.625 L 729.964844 764.703125 C 740.578125 770.828125 753.648438 770.828125 764.261719 764.703125 L 1047.070312 601.414062 C 1051.28125 598.988281 1051.28125 592.910156 1047.070312 590.480469 L 678.371094 377.609375 C 671.988281 373.929688 664.144531 373.929688 657.777344 377.609375 Z M 657.777344 377.609375 " fill-opacity="1" fill-rule="nonzero"/><path fill="#f5f5f5" d="M 681.75 14.363281 L 1043.453125 223.199219 C 1051.554688 227.878906 1056.539062 236.511719 1056.539062 245.867188 L 1056.539062 561.863281 C 1056.539062 568.519531 1049.335938 572.683594 1043.566406 569.355469 L 689.289062 364.796875 C 676.152344 357.222656 668.066406 343.203125 668.066406 328.042969 L 668.066406 22.257812 C 668.066406 15.230469 675.671875 10.84375 681.75 14.363281 Z M 665.671875 405.636719 L 517.867188 490.929688 L 846.226562 680.5 L 995.136719 594.535156 Z M 609.414062 568.375 L 531.535156 613.3125 C 526.824219 616.03125 526.824219 622.832031 531.535156 625.5625 L 620.121094 676.707031 C 623.949219 678.925781 628.675781 678.925781 632.503906 676.707031 L 707.699219 633.296875 C 712.410156 630.582031 712.410156 623.777344 707.699219 621.0625 L 616.488281 568.40625 C 614.300781 567.105469 611.617188 567.105469 609.414062 568.375 Z M 609.414062 568.375 " fill-opacity="1" fill-rule="nonzero"/><g clip-path="url(#52ebb71a0e)"><path fill="#000000" d="M 403.667969 593.070312 C 403.667969 596.542969 400.226562 599.003906 396.832031 597.074219 C 393.441406 595.144531 390.320312 590.578125 390.320312 586.222656 C 390.320312 582.007812 393.84375 580.113281 397.027344 581.785156 C 401.6875 584.242188 403.667969 589.597656 403.667969 593.070312 Z M 1083.792969 239.855469 L 1083.792969 548.132812 C 1083.792969 557.84375 1078.566406 566.878906 1070.15625 571.734375 C 1065.960938 574.164062 1061.25 575.367188 1056.523438 575.367188 C 1051.796875 575.367188 1047.101562 574.164062 1042.890625 571.734375 L 1042.34375 571.414062 L 1030.15625 564.371094 C 1029.160156 568.070312 1027.054688 571.6875 1024.253906 574.515625 L 1048.277344 588.375 C 1054.867188 592.171875 1058.953125 599.261719 1058.953125 606.867188 L 1058.953125 617.300781 C 1058.953125 624.90625 1054.867188 631.996094 1048.277344 635.789062 L 769.902344 796.503906 C 762.878906 800.554688 755 802.597656 747.121094 802.597656 C 739.242188 802.597656 731.363281 800.570312 724.339844 796.503906 L 371.429688 592.78125 C 362.054688 587.363281 356.238281 577.28125 356.238281 566.460938 C 356.238281 555.640625 362.054688 545.558594 371.429688 540.140625 L 375.320312 537.890625 L 656.570312 375.519531 C 663.660156 371.421875 672.472656 371.421875 679.578125 375.519531 L 691.136719 382.191406 C 692.054688 378.738281 693.902344 374.992188 696.925781 371.984375 L 688.082031 366.886719 C 674.257812 358.894531 665.65625 344.023438 665.65625 328.042969 L 665.65625 20.296875 C 665.65625 10.90625 670.703125 2.144531 678.839844 -2.550781 C 686.957031 -7.230469 697.039062 -7.246094 705.175781 -2.582031 L 1062.246094 202.621094 C 1075.542969 210.257812 1083.792969 224.519531 1083.792969 239.855469 Z M 672.199219 11.886719 C 675.640625 10.230469 679.59375 10.328125 682.953125 12.273438 L 1044.660156 221.109375 C 1048.339844 223.230469 1051.441406 226.140625 1053.804688 229.550781 L 1072.554688 218.730469 C 1069.335938 213.90625 1065.027344 209.789062 1059.851562 206.816406 L 702.777344 1.597656 C 696.136719 -2.210938 687.890625 -2.210938 681.265625 1.613281 C 677.152344 3.992188 674 7.644531 672.199219 11.886719 Z M 695.496094 384.71875 L 748.839844 415.523438 C 749.789062 412.066406 751.6875 408.351562 754.742188 405.378906 L 701.285156 374.507812 C 697.90625 377.320312 696.105469 381.421875 695.496094 384.71875 Z M 955.28125 521.152344 L 771.898438 415.28125 C 770.933594 418.980469 768.84375 422.613281 766.0625 425.457031 L 949.445312 531.332031 C 950.363281 527.875 952.226562 524.144531 955.28125 521.152344 Z M 953.769531 533.839844 L 1007.101562 564.628906 C 1008.03125 561.171875 1009.898438 557.441406 1012.9375 554.453125 L 959.671875 523.695312 C 956.277344 526.460938 954.429688 530.527344 953.769531 533.839844 Z M 767.523438 412.757812 L 759.132812 407.917969 C 755.722656 410.667969 753.859375 414.703125 753.167969 418.03125 L 761.703125 422.964844 C 764.710938 420.296875 766.929688 416.40625 767.523438 412.757812 Z M 744.710938 771.597656 C 739.179688 771.230469 733.710938 769.636719 728.777344 766.777344 L 375.320312 562.730469 C 370.835938 560.144531 368.148438 555.496094 368.148438 550.320312 C 368.148438 549.773438 368.199219 549.242188 368.246094 548.710938 C 363.710938 553.40625 361.058594 559.773438 361.058594 566.460938 C 361.058594 575.5625 365.964844 584.050781 373.839844 588.601562 L 726.734375 792.355469 C 732.296875 795.570312 738.472656 797.355469 744.695312 797.726562 L 744.695312 771.597656 Z M 1048.277344 603.503906 L 765.464844 766.792969 C 760.53125 769.636719 755.0625 771.246094 749.53125 771.613281 L 749.53125 797.726562 C 755.769531 797.355469 761.929688 795.570312 767.492188 792.355469 L 1045.863281 631.640625 C 1050.960938 628.699219 1054.128906 623.214844 1054.128906 617.332031 L 1054.128906 606.898438 C 1054.128906 604.101562 1053.386719 601.398438 1052.085938 599.003906 C 1051.394531 600.867188 1050.078125 602.460938 1048.277344 603.503906 Z M 677.152344 379.703125 C 674.351562 378.078125 671.203125 377.273438 668.066406 377.273438 C 664.914062 377.273438 661.78125 378.078125 658.984375 379.703125 L 377.734375 542.070312 C 374.757812 543.792969 372.972656 546.863281 372.972656 550.304688 C 372.972656 553.742188 374.757812 556.816406 377.734375 558.535156 L 731.171875 762.613281 C 741.011719 768.285156 753.214844 768.285156 763.054688 762.613281 L 1045.863281 599.324219 C 1047.085938 598.617188 1047.808594 597.363281 1047.808594 595.949219 C 1047.808594 594.535156 1047.085938 593.28125 1045.863281 592.570312 Z M 1025.816406 561.863281 L 1017.324219 556.960938 C 1013.933594 559.742188 1012.101562 563.808594 1011.457031 567.121094 L 1019.914062 572.007812 C 1022.921875 569.402344 1025.15625 565.527344 1025.816406 561.863281 Z M 1054.128906 245.851562 C 1054.128906 237.394531 1049.578125 229.5 1042.246094 225.273438 L 680.542969 16.4375 C 679.496094 15.828125 678.339844 15.519531 677.183594 15.519531 C 676.023438 15.519531 674.882812 15.828125 673.824219 16.4375 C 671.714844 17.644531 670.460938 19.832031 670.460938 22.242188 L 670.460938 328.027344 C 670.460938 342.289062 678.132812 355.566406 690.480469 362.691406 L 1044.753906 567.234375 L 1044.769531 567.234375 C 1046.714844 568.359375 1049.046875 568.359375 1050.992188 567.234375 C 1052.9375 566.109375 1054.113281 564.082031 1054.113281 561.832031 L 1054.113281 245.851562 Z M 1078.96875 239.855469 C 1078.96875 233.875 1077.554688 228.085938 1074.964844 222.894531 L 1056.21875 233.714844 C 1057.988281 237.460938 1058.953125 241.59375 1058.953125 245.851562 L 1058.953125 561.847656 C 1058.953125 565.289062 1057.40625 568.40625 1054.789062 570.496094 C 1059.242188 570.851562 1063.773438 569.871094 1067.761719 567.570312 C 1074.675781 563.582031 1078.984375 556.125 1078.984375 548.148438 L 1078.984375 239.855469 Z M 1039.835938 257.816406 L 1039.835938 501.925781 C 1039.835938 507.664062 1038.050781 512.792969 1035.125 516.957031 C 1031.457031 523.984375 1023.886719 528.355469 1015.976562 528.019531 C 1010.894531 528.484375 1005.574219 527.457031 1000.589844 524.578125 L 707.199219 355.199219 C 693.375 347.207031 684.769531 332.335938 684.769531 316.355469 L 684.769531 36.308594 L 1025.542969 233.054688 C 1034.351562 238.152344 1039.835938 247.621094 1039.835938 257.816406 Z M 1023.128906 237.234375 L 990.121094 218.183594 L 797.574219 401.808594 L 839.375 425.941406 L 1030.398438 243.777344 C 1028.46875 241.160156 1026.023438 238.90625 1023.128906 237.234375 Z M 709.613281 351.035156 L 770.515625 386.195312 L 963.0625 202.570312 L 888.203125 159.355469 L 697.9375 340.792969 C 701.089844 344.875 705.03125 348.382812 709.613281 351.035156 Z M 666.875 403.542969 L 999.976562 594.515625 L 846.242188 683.285156 L 845.035156 682.59375 L 513.058594 490.929688 L 665.671875 402.851562 Z M 597.164062 447.953125 L 674.433594 492.566406 L 706.8125 473.871094 L 629.574219 429.253906 Z M 642.035156 516.84375 L 678.261719 537.761719 L 710.65625 519.046875 L 674.433594 498.128906 Z M 669.625 495.347656 L 633.402344 474.433594 L 600.988281 493.128906 L 637.214844 514.046875 Z M 683.082031 540.542969 L 719.308594 561.460938 L 751.703125 542.746094 L 715.480469 521.828125 Z M 724.113281 564.226562 L 760.320312 585.128906 L 792.671875 566.398438 L 756.496094 545.511719 Z M 765.160156 587.925781 L 801.382812 608.84375 L 833.78125 590.128906 L 797.507812 569.195312 Z M 806.191406 611.625 L 842.414062 632.542969 L 874.8125 613.828125 L 838.589844 592.910156 Z M 838.605469 587.347656 L 870.9375 568.679688 L 834.617188 547.699219 L 802.316406 566.398438 Z M 829.808594 544.917969 L 793.699219 524.0625 L 761.335938 542.746094 L 797.492188 563.632812 Z M 788.875 521.265625 L 752.667969 500.347656 L 720.289062 519.046875 L 756.511719 539.964844 Z M 747.859375 497.566406 L 711.652344 476.652344 L 679.273438 495.347656 L 715.496094 516.265625 Z M 559.925781 469.449219 L 596.167969 490.363281 L 628.578125 471.667969 L 592.339844 450.75 Z M 558.945312 511.84375 L 591.359375 493.148438 L 555.121094 472.230469 L 522.707031 490.929688 Z M 805.195312 654.023438 L 837.589844 635.308594 L 596.167969 495.929688 L 563.753906 514.625 Z M 878.636719 659.003906 L 842.414062 638.089844 L 810.019531 656.804688 L 846.242188 677.71875 Z M 953 616.078125 L 875.761719 571.460938 L 843.429688 590.128906 L 884.472656 613.828125 L 847.253906 635.324219 L 883.476562 656.242188 Z M 953.964844 573.695312 L 921.613281 592.378906 L 957.820312 613.296875 L 990.316406 594.535156 Z M 912.773438 550.09375 L 880.582031 568.679688 L 916.792969 589.597656 L 949.125 570.929688 Z M 871.433594 526.378906 L 839.441406 544.902344 L 875.761719 565.882812 L 907.933594 547.3125 Z M 830.40625 502.875 L 798.523438 521.28125 L 834.617188 542.136719 L 866.597656 523.628906 Z M 789.230469 479.253906 L 757.507812 497.566406 L 793.714844 518.484375 L 825.582031 500.09375 Z M 748.039062 455.636719 L 716.460938 473.871094 L 752.667969 494.785156 L 784.375 476.472656 Z M 706.863281 432.035156 L 675.445312 450.171875 L 711.652344 471.085938 L 743.214844 452.871094 Z M 702.023438 429.253906 L 665.6875 408.417969 L 634.414062 426.457031 L 670.621094 447.371094 Z M 419.886719 595.113281 C 416.707031 593.441406 413.183594 595.335938 413.183594 599.550781 C 413.183594 603.90625 416.304688 608.472656 419.695312 610.402344 C 423.089844 612.332031 426.527344 609.871094 426.527344 606.398438 C 426.527344 602.925781 424.550781 597.574219 419.886719 595.113281 Z M 714.820312 627.15625 C 714.820312 630.164062 713.261719 632.847656 710.671875 634.359375 L 634.898438 678.105469 C 632.261719 679.632812 629.285156 680.390625 626.328125 680.390625 C 623.371094 680.390625 620.394531 679.632812 617.757812 678.105469 L 528.316406 626.464844 C 525.777344 625 524.25 622.363281 524.25 619.421875 C 524.25 616.480469 525.777344 613.859375 528.316406 612.378906 L 604.816406 568.246094 C 609.847656 565.351562 616.101562 565.351562 621.136719 568.246094 L 710.6875 619.953125 C 713.261719 621.464844 714.820312 624.148438 714.820312 627.15625 Z M 577.339844 649.214844 L 594.300781 639.421875 L 542.722656 609.648438 L 530.714844 616.578125 C 529.683594 617.171875 529.058594 618.25 529.058594 619.4375 C 529.058594 620.628906 529.667969 621.707031 530.714844 622.300781 Z M 643.273438 667.6875 L 599.125 642.203125 L 582.164062 651.996094 L 620.15625 673.925781 C 623.949219 676.113281 628.675781 676.113281 632.46875 673.925781 Z M 709.996094 627.15625 C 709.996094 625.886719 709.339844 624.761719 708.261719 624.132812 L 618.707031 572.425781 C 615.171875 570.382812 610.765625 570.382812 607.210938 572.425781 L 547.546875 606.847656 L 648.097656 664.90625 L 708.261719 630.179688 C 709.339844 629.550781 709.996094 628.425781 709.996094 627.15625 Z M 442.765625 608.441406 C 439.585938 606.769531 436.0625 608.667969 436.0625 612.878906 C 436.0625 617.234375 439.183594 621.800781 442.574219 623.730469 C 445.96875 625.660156 449.40625 623.199219 449.40625 619.726562 C 449.40625 616.253906 447.429688 610.886719 442.765625 608.441406 Z M 877.046875 144.289062 C 879.585938 145.734375 882.175781 143.902344 882.175781 141.28125 C 882.175781 138.660156 880.695312 134.660156 877.191406 132.824219 C 874.8125 131.570312 872.160156 133.003906 872.160156 136.152344 C 872.160156 139.417969 874.507812 142.84375 877.046875 144.289062 Z M 877.046875 144.289062 " fill-opacity="1" fill-rule="nonzero"/></g></svg>