<svg xmlns="http://www.w3.org/2000/svg" xmlns:xlink="http://www.w3.org/1999/xlink" width="500" zoomAndPan="magnify" viewBox="0 0 375 374.999991" height="500" preserveAspectRatio="xMidYMid meet" version="1.0"><defs><clipPath id="3f49ee7f13"><path d="M 4 0 L 371.960938 0 L 371.960938 368 L 4 368 Z M 4 0 " clip-rule="nonzero"/></clipPath></defs><g clip-path="url(#3f49ee7f13)"><path fill="#ffffff" d="M 187.332031 0.335938 C 84.875 0.679688 2.984375 83.949219 4.324219 186.351562 C 4.382812 191.496094 4.660156 196.628906 5.15625 201.75 C 5.652344 206.871094 6.359375 211.960938 7.285156 217.023438 C 8.210938 222.085938 9.34375 227.097656 10.695312 232.066406 C 12.042969 237.03125 13.597656 241.929688 15.359375 246.765625 C 17.121094 251.597656 19.082031 256.351562 21.246094 261.019531 C 23.410156 265.6875 25.765625 270.257812 28.316406 274.726562 C 30.867188 279.195312 33.597656 283.550781 36.515625 287.789062 C 39.433594 292.027344 42.527344 296.136719 45.789062 300.113281 C 46.304688 300.742188 46.765625 301.40625 47.179688 302.101562 C 47.59375 302.800781 47.953125 303.523438 48.257812 304.277344 C 48.5625 305.027344 48.8125 305.796875 49 306.585938 C 49.191406 307.371094 49.320312 308.171875 49.394531 308.976562 C 49.464844 309.785156 49.472656 310.59375 49.421875 311.402344 C 49.371094 312.210938 49.261719 313.011719 49.09375 313.804688 C 48.921875 314.597656 48.695312 315.375 48.40625 316.132812 C 48.121094 316.890625 47.78125 317.625 47.382812 318.332031 L 31.5625 346.667969 C 27.179688 354.523438 34.324219 363.8125 43.046875 361.59375 L 96.628906 347.957031 C 98.5 347.484375 100.390625 347.34375 102.308594 347.542969 C 104.230469 347.738281 106.054688 348.257812 107.789062 349.101562 C 119.636719 354.855469 131.964844 359.277344 144.769531 362.367188 C 157.574219 365.457031 170.5625 367.140625 183.730469 367.425781 C 286.742188 369.753906 371.296875 287.480469 371.617188 184.488281 C 371.9375 82.628906 289.246094 -0.0078125 187.332031 0.335938 Z M 187.964844 344.851562 C 185.328125 344.851562 182.695312 344.789062 180.0625 344.660156 C 177.429688 344.527344 174.800781 344.335938 172.179688 344.078125 C 169.558594 343.820312 166.941406 343.496094 164.335938 343.109375 C 161.730469 342.722656 159.132812 342.273438 156.550781 341.761719 C 153.964844 341.246094 151.394531 340.667969 148.835938 340.03125 C 146.28125 339.390625 143.742188 338.6875 141.21875 337.921875 C 138.699219 337.15625 136.195312 336.332031 133.714844 335.445312 C 131.234375 334.558594 128.777344 333.609375 126.34375 332.601562 C 123.90625 331.59375 121.5 330.527344 119.117188 329.402344 C 116.734375 328.273438 114.382812 327.089844 112.058594 325.847656 C 109.734375 324.605469 107.441406 323.308594 105.179688 321.953125 C 102.917969 320.601562 100.695312 319.191406 98.503906 317.730469 C 96.3125 316.265625 94.15625 314.75 92.039062 313.179688 C 89.925781 311.609375 87.847656 309.992188 85.808594 308.320312 C 83.773438 306.648438 81.777344 304.929688 79.824219 303.160156 C 77.871094 301.390625 75.964844 299.574219 74.101562 297.710938 C 72.238281 295.851562 70.421875 293.941406 68.652344 291.992188 C 66.882812 290.039062 65.160156 288.046875 63.488281 286.007812 C 61.816406 283.972656 60.195312 281.898438 58.625 279.78125 C 57.058594 277.667969 55.539062 275.511719 54.074219 273.324219 C 52.613281 271.132812 51.203125 268.90625 49.847656 266.648438 C 48.492188 264.390625 47.195312 262.097656 45.953125 259.773438 C 44.710938 257.453125 43.523438 255.101562 42.398438 252.71875 C 41.273438 250.335938 40.203125 247.929688 39.195312 245.496094 C 38.1875 243.0625 37.238281 240.605469 36.351562 238.125 C 35.464844 235.644531 34.636719 233.144531 33.871094 230.625 C 33.105469 228.105469 32.402344 225.566406 31.765625 223.011719 C 31.125 220.457031 30.546875 217.886719 30.03125 215.304688 C 29.519531 212.71875 29.066406 210.125 28.679688 207.519531 C 28.292969 204.914062 27.972656 202.300781 27.714844 199.679688 C 27.457031 197.058594 27.261719 194.433594 27.132812 191.800781 C 27.003906 189.171875 26.9375 186.539062 26.9375 183.902344 C 26.9375 95.015625 99.03125 22.957031 187.964844 22.957031 C 276.550781 22.957031 348.425781 94.457031 348.984375 182.867188 C 349.542969 271.582031 276.71875 344.851562 187.964844 344.851562 Z M 187.964844 344.851562 " fill-opacity="1" fill-rule="nonzero"/></g><path fill="#ffffff" d="M 159.183594 105.65625 L 159.257812 105.804688 L 168.863281 124.839844 C 169.378906 125.867188 169.808594 126.925781 170.15625 128.019531 C 170.5 129.109375 170.757812 130.226562 170.921875 131.359375 C 171.085938 132.496094 171.160156 133.636719 171.144531 134.78125 C 171.125 135.929688 171.015625 137.066406 170.8125 138.195312 C 170.609375 139.324219 170.320312 140.429688 169.9375 141.511719 C 169.558594 142.59375 169.09375 143.636719 168.542969 144.644531 C 167.996094 145.648438 167.367188 146.605469 166.664062 147.511719 C 165.960938 148.417969 165.191406 149.261719 164.351562 150.042969 C 163.515625 150.820312 162.746094 151.65625 162.042969 152.554688 C 161.34375 153.453125 160.71875 154.402344 160.167969 155.402344 C 159.621094 156.402344 159.15625 157.4375 158.773438 158.511719 C 158.390625 159.585938 158.097656 160.683594 157.890625 161.804688 C 157.6875 162.925781 157.570312 164.058594 157.546875 165.195312 C 157.523438 166.335938 157.589844 167.472656 157.75 168.601562 C 157.910156 169.730469 158.15625 170.839844 158.492188 171.925781 C 158.832031 173.015625 159.253906 174.070312 159.757812 175.09375 C 165.523438 186.664062 175.511719 202.613281 190.753906 214.121094 C 191.605469 214.769531 192.496094 215.34375 193.433594 215.855469 C 194.371094 216.367188 195.339844 216.804688 196.339844 217.171875 C 197.339844 217.539062 198.363281 217.828125 199.410156 218.042969 C 200.453125 218.257812 201.511719 218.390625 202.574219 218.445312 C 203.640625 218.5 204.703125 218.476562 205.765625 218.375 C 206.828125 218.269531 207.875 218.089844 208.910156 217.828125 C 209.941406 217.570312 210.953125 217.234375 211.9375 216.824219 C 212.921875 216.414062 213.867188 215.929688 214.78125 215.378906 L 220.964844 211.617188 C 222.351562 210.773438 223.816406 210.097656 225.359375 209.585938 C 226.898438 209.078125 228.480469 208.75 230.097656 208.597656 C 231.714844 208.449219 233.324219 208.484375 234.933594 208.703125 C 236.542969 208.925781 238.105469 209.320312 239.625 209.898438 L 264.207031 219.242188 C 264.863281 219.488281 265.5 219.769531 266.125 220.078125 C 266.75 220.390625 267.359375 220.730469 267.953125 221.101562 C 268.542969 221.472656 269.117188 221.871094 269.667969 222.296875 C 270.222656 222.726562 270.753906 223.179688 271.261719 223.65625 C 271.769531 224.136719 272.253906 224.640625 272.710938 225.164062 C 273.171875 225.691406 273.601562 226.238281 274.007812 226.808594 C 274.414062 227.378906 274.789062 227.964844 275.136719 228.570312 C 275.484375 229.175781 275.800781 229.796875 276.085938 230.433594 C 276.371094 231.070312 276.625 231.722656 276.847656 232.382812 C 277.070312 233.042969 277.261719 233.714844 277.417969 234.394531 C 277.574219 235.078125 277.695312 235.761719 277.785156 236.457031 C 277.875 237.148438 277.929688 237.84375 277.949219 238.542969 C 277.96875 239.238281 277.957031 239.9375 277.90625 240.632812 C 277.859375 241.328125 277.777344 242.023438 277.660156 242.710938 C 277.542969 243.398438 277.394531 244.082031 277.210938 244.753906 C 277.027344 245.429688 276.8125 246.089844 276.566406 246.742188 C 276.277344 247.496094 275.949219 248.226562 275.582031 248.941406 L 268.769531 262.140625 C 268.21875 263.207031 267.582031 264.21875 266.859375 265.179688 C 266.136719 266.140625 265.335938 267.03125 264.464844 267.855469 C 263.589844 268.683594 262.652344 269.425781 261.652344 270.09375 C 260.652344 270.761719 259.605469 271.339844 258.507812 271.828125 C 257.410156 272.320312 256.277344 272.714844 255.113281 273.011719 C 253.949219 273.308594 252.769531 273.507812 251.570312 273.609375 C 250.375 273.707031 249.175781 273.707031 247.980469 273.601562 C 246.78125 273.5 245.601562 273.296875 244.4375 272.996094 C 205.828125 263.011719 113.808594 228.304688 106.394531 123.355469 C 106.320312 122.320312 106.320312 121.285156 106.398438 120.25 C 106.476562 119.214844 106.628906 118.1875 106.859375 117.175781 C 107.085938 116.160156 107.386719 115.171875 107.757812 114.203125 C 108.132812 113.230469 108.574219 112.292969 109.082031 111.390625 C 109.589844 110.484375 110.164062 109.621094 110.800781 108.800781 C 111.433594 107.976562 112.128906 107.207031 112.875 106.488281 C 113.625 105.765625 114.421875 105.105469 115.265625 104.5 C 116.109375 103.894531 116.996094 103.355469 117.917969 102.882812 L 130.457031 96.445312 C 131.078125 96.125 131.714844 95.835938 132.363281 95.578125 C 133.015625 95.320312 133.675781 95.097656 134.347656 94.90625 C 135.019531 94.714844 135.699219 94.554688 136.386719 94.429688 C 137.074219 94.304688 137.765625 94.214844 138.460938 94.15625 C 139.15625 94.097656 139.855469 94.074219 140.554688 94.085938 C 141.25 94.097656 141.949219 94.144531 142.640625 94.222656 C 143.335938 94.300781 144.023438 94.414062 144.707031 94.5625 C 145.390625 94.710938 146.066406 94.890625 146.730469 95.101562 C 147.394531 95.316406 148.046875 95.5625 148.691406 95.839844 C 149.332031 96.117188 149.957031 96.425781 150.566406 96.765625 C 151.179688 97.101562 151.769531 97.472656 152.34375 97.867188 C 152.921875 98.265625 153.472656 98.691406 154.007812 99.140625 C 154.539062 99.59375 155.050781 100.070312 155.535156 100.570312 C 156.023438 101.074219 156.480469 101.597656 156.917969 102.144531 C 157.351562 102.691406 157.757812 103.257812 158.136719 103.84375 C 158.515625 104.429688 158.863281 105.035156 159.183594 105.65625 Z M 159.183594 105.65625 " fill-opacity="1" fill-rule="nonzero"/></svg>