<svg xmlns="http://www.w3.org/2000/svg" xmlns:xlink="http://www.w3.org/1999/xlink" width="500" zoomAndPan="magnify" viewBox="0 0 375 374.999991" height="500" preserveAspectRatio="xMidYMid meet" version="1.0"><path fill="#092e20" d="M 41.015625 0 L 333.984375 0 C 335.328125 0 336.667969 0.0664062 338.003906 0.199219 C 339.339844 0.328125 340.667969 0.527344 341.984375 0.789062 C 343.304688 1.050781 344.605469 1.375 345.890625 1.765625 C 347.175781 2.15625 348.4375 2.609375 349.679688 3.121094 C 350.921875 3.636719 352.132812 4.210938 353.320312 4.84375 C 354.503906 5.476562 355.65625 6.167969 356.769531 6.914062 C 357.886719 7.660156 358.964844 8.457031 360.003906 9.308594 C 361.042969 10.164062 362.035156 11.0625 362.988281 12.011719 C 363.9375 12.964844 364.835938 13.957031 365.691406 14.996094 C 366.542969 16.035156 367.339844 17.113281 368.085938 18.230469 C 368.832031 19.34375 369.523438 20.496094 370.15625 21.679688 C 370.789062 22.867188 371.363281 24.078125 371.878906 25.320312 C 372.390625 26.5625 372.84375 27.824219 373.234375 29.109375 C 373.625 30.394531 373.949219 31.695312 374.210938 33.015625 C 374.472656 34.332031 374.671875 35.660156 374.800781 36.996094 C 374.933594 38.332031 375 39.671875 375 41.015625 L 375 333.984375 C 375 335.328125 374.933594 336.667969 374.800781 338.003906 C 374.671875 339.339844 374.472656 340.667969 374.210938 341.984375 C 373.949219 343.304688 373.625 344.605469 373.234375 345.890625 C 372.84375 347.175781 372.390625 348.4375 371.878906 349.679688 C 371.363281 350.921875 370.789062 352.132812 370.15625 353.320312 C 369.523438 354.503906 368.832031 355.65625 368.085938 356.769531 C 367.339844 357.886719 366.542969 358.964844 365.691406 360.003906 C 364.835938 361.042969 363.9375 362.035156 362.988281 362.988281 C 362.035156 363.9375 361.042969 364.835938 360.003906 365.691406 C 358.964844 366.542969 357.886719 367.339844 356.769531 368.085938 C 355.65625 368.832031 354.503906 369.523438 353.320312 370.15625 C 352.132812 370.789062 350.921875 371.363281 349.679688 371.878906 C 348.4375 372.390625 347.175781 372.84375 345.890625 373.234375 C 344.605469 373.625 343.304688 373.949219 341.984375 374.210938 C 340.667969 374.472656 339.339844 374.671875 338.003906 374.800781 C 336.667969 374.933594 335.328125 375 333.984375 375 L 41.015625 375 C 39.671875 375 38.332031 374.933594 36.996094 374.800781 C 35.660156 374.671875 34.332031 374.472656 33.015625 374.210938 C 31.695312 373.949219 30.394531 373.625 29.109375 373.234375 C 27.824219 372.84375 26.5625 372.390625 25.320312 371.878906 C 24.078125 371.363281 22.867188 370.789062 21.679688 370.15625 C 20.496094 369.523438 19.34375 368.832031 18.230469 368.085938 C 17.113281 367.339844 16.035156 366.542969 14.996094 365.691406 C 13.957031 364.835938 12.964844 363.9375 12.011719 362.988281 C 11.0625 362.035156 10.164062 361.042969 9.308594 360.003906 C 8.457031 358.964844 7.660156 357.886719 6.914062 356.769531 C 6.167969 355.65625 5.476562 354.503906 4.84375 353.320312 C 4.210938 352.132812 3.636719 350.921875 3.121094 349.679688 C 2.609375 348.4375 2.15625 347.175781 1.765625 345.890625 C 1.375 344.605469 1.050781 343.304688 0.789062 341.984375 C 0.527344 340.667969 0.328125 339.339844 0.199219 338.003906 C 0.0664062 336.667969 0 335.328125 0 333.984375 L 0 41.015625 C 0 39.671875 0.0664062 38.332031 0.199219 36.996094 C 0.328125 35.660156 0.527344 34.332031 0.789062 33.015625 C 1.050781 31.695312 1.375 30.394531 1.765625 29.109375 C 2.15625 27.824219 2.609375 26.5625 3.121094 25.320312 C 3.636719 24.078125 4.210938 22.867188 4.84375 21.679688 C 5.476562 20.496094 6.167969 19.34375 6.914062 18.230469 C 7.660156 17.113281 8.457031 16.035156 9.308594 14.996094 C 10.164062 13.957031 11.0625 12.964844 12.011719 12.011719 C 12.964844 11.0625 13.957031 10.164062 14.996094 9.308594 C 16.035156 8.457031 17.113281 7.660156 18.230469 6.914062 C 19.34375 6.167969 20.496094 5.476562 21.679688 4.84375 C 22.867188 4.210938 24.078125 3.636719 25.320312 3.121094 C 26.5625 2.609375 27.824219 2.15625 29.109375 1.765625 C 30.394531 1.375 31.695312 1.050781 33.015625 0.789062 C 34.332031 0.527344 35.660156 0.328125 36.996094 0.199219 C 38.332031 0.0664062 39.671875 0 41.015625 0 Z M 41.015625 0 " fill-opacity="1" fill-rule="nonzero"/><path fill="#fffffd" d="M 273.011719 137.984375 L 273.011719 234.996094 C 273.011719 268.421875 270.566406 284.453125 263.230469 298.316406 C 256.4375 311.632812 247.46875 320.054688 228.988281 329.296875 L 190.128906 310.816406 C 208.609375 302.121094 217.574219 294.515625 223.28125 282.824219 C 229.261719 270.867188 231.164062 257.007812 231.164062 220.59375 L 231.164062 137.984375 Z M 206.4375 73.359375 L 206.4375 267.066406 C 184.96875 271.140625 169.207031 272.773438 152.089844 272.773438 C 101 272.773438 74.367188 249.675781 74.367188 205.378906 C 74.367188 162.714844 102.632812 134.996094 146.382812 134.996094 C 153.175781 134.996094 158.335938 135.539062 164.589844 137.167969 L 164.589844 73.359375 Z M 150.457031 168.691406 C 129.261719 168.691406 117.03125 181.738281 117.03125 204.5625 C 117.03125 226.847656 128.71875 239.074219 150.1875 239.074219 C 154.804688 239.074219 158.609375 238.800781 164.589844 237.988281 L 164.589844 170.863281 C 159.699219 169.234375 155.621094 168.691406 150.457031 168.691406 Z M 273.011719 73.582031 L 273.011719 116.515625 L 231.164062 116.515625 L 231.164062 73.582031 Z M 273.011719 73.582031 " fill-opacity="1" fill-rule="nonzero"/></svg>