<svg xmlns="http://www.w3.org/2000/svg" xmlns:xlink="http://www.w3.org/1999/xlink" width="500" zoomAndPan="magnify" viewBox="0 0 375 374.999991" height="500" preserveAspectRatio="xMidYMid meet" version="1.0"><defs><clipPath id="d85964f056"><path d="M 20.703125 18.75 L 354.296875 18.75 L 354.296875 356.253906 L 20.703125 356.253906 Z M 20.703125 18.75 " clip-rule="nonzero"/></clipPath><clipPath id="3ffb99cd42"><path d="M 187.5 18.75 C 95.378906 18.75 20.703125 94.300781 20.703125 187.5 C 20.703125 280.699219 95.378906 356.25 187.5 356.25 C 279.621094 356.25 354.296875 280.699219 354.296875 187.5 C 354.296875 94.300781 279.621094 18.75 187.5 18.75 Z M 187.5 18.75 " clip-rule="nonzero"/></clipPath><clipPath id="b4db36d49d"><path d="M 0.46875 0 L 374.71875 0 L 374.71875 375 L 0.46875 375 Z M 0.46875 0 " clip-rule="nonzero"/></clipPath></defs><g clip-path="url(#d85964f056)"><g clip-path="url(#3ffb99cd42)"><path fill="#ffffff" d="M 20.703125 18.75 L 354.296875 18.75 L 354.296875 356.253906 L 20.703125 356.253906 Z M 20.703125 18.75 " fill-opacity="1" fill-rule="nonzero"/></g></g><g clip-path="url(#b4db36d49d)"><path fill="#000000" d="M 175.339844 0.324219 C 174.535156 0.398438 171.972656 0.65625 169.667969 0.839844 C 116.511719 5.632812 66.722656 34.335938 35.1875 78.453125 C 17.625 102.984375 6.394531 130.808594 2.152344 160.28125 C 0.652344 170.566406 0.46875 173.605469 0.46875 187.554688 C 0.46875 201.503906 0.652344 204.542969 2.152344 214.832031 C 12.320312 285.160156 62.332031 344.25 130.15625 366.144531 C 142.304688 370.0625 155.109375 372.734375 169.667969 374.34375 C 175.339844 374.96875 199.847656 374.96875 205.519531 374.34375 C 230.652344 371.5625 251.945312 365.339844 272.941406 354.609375 C 276.164062 352.964844 276.785156 352.523438 276.34375 352.160156 C 276.054688 351.9375 262.332031 333.523438 245.871094 311.265625 L 215.945312 270.808594 L 178.449219 215.269531 C 157.816406 184.734375 140.839844 159.765625 140.695312 159.765625 C 140.546875 159.730469 140.402344 184.40625 140.328125 214.539062 C 140.21875 267.292969 140.179688 269.417969 139.523438 270.660156 C 138.570312 272.457031 137.839844 273.1875 136.304688 273.992188 C 135.132812 274.578125 134.109375 274.6875 128.585938 274.6875 L 122.253906 274.6875 L 120.574219 273.628906 C 119.476562 272.933594 118.671875 272.015625 118.121094 270.953125 L 117.351562 269.308594 L 117.425781 195.902344 L 117.535156 122.460938 L 118.671875 121.03125 C 119.253906 120.265625 120.5 119.273438 121.378906 118.800781 C 122.878906 118.066406 123.460938 117.992188 129.792969 117.992188 C 137.253906 117.992188 138.5 118.285156 140.4375 120.410156 C 140.984375 120.996094 161.289062 151.601562 185.582031 188.46875 C 209.875 225.335938 243.089844 275.675781 259.40625 300.390625 L 289.039062 345.3125 L 290.539062 344.324219 C 303.820312 335.683594 317.867188 323.382812 328.988281 310.566406 C 352.660156 283.367188 367.914062 250.195312 373.035156 214.832031 C 374.535156 204.542969 374.71875 201.503906 374.71875 187.554688 C 374.71875 173.605469 374.535156 170.566406 373.035156 160.28125 C 362.867188 89.949219 312.855469 30.859375 245.03125 8.964844 C 233.066406 5.085938 220.335938 2.414062 206.070312 0.800781 C 202.554688 0.4375 178.375 0.03125 175.339844 0.324219 Z M 251.945312 113.601562 C 253.699219 114.480469 255.128906 116.164062 255.640625 117.921875 C 255.933594 118.871094 256.003906 139.226562 255.933594 185.101562 L 255.820312 250.929688 L 244.226562 233.136719 L 232.589844 215.34375 L 232.589844 167.492188 C 232.589844 136.554688 232.738281 119.164062 232.957031 118.324219 C 233.542969 116.273438 234.824219 114.664062 236.578125 113.710938 C 238.078125 112.941406 238.628906 112.867188 244.371094 112.867188 C 249.785156 112.867188 250.738281 112.941406 251.945312 113.601562 Z M 251.945312 113.601562 " fill-opacity="1" fill-rule="nonzero"/></g><path fill="#000000" d="M 287.210938 346.117188 C 285.929688 346.921875 285.527344 347.472656 286.660156 346.851562 C 287.46875 346.375 288.785156 345.386719 288.5625 345.347656 C 288.453125 345.347656 287.832031 345.714844 287.210938 346.117188 Z M 284.6875 347.765625 C 284.027344 348.277344 284.027344 348.3125 284.832031 347.910156 C 285.273438 347.691406 285.636719 347.433594 285.636719 347.363281 C 285.636719 347.070312 285.453125 347.140625 284.6875 347.765625 Z M 282.855469 348.863281 C 282.199219 349.375 282.199219 349.414062 283.003906 349.007812 C 283.441406 348.789062 283.808594 348.535156 283.808594 348.460938 C 283.808594 348.167969 283.625 348.242188 282.855469 348.863281 Z M 281.027344 349.960938 C 280.371094 350.472656 280.371094 350.511719 281.175781 350.109375 C 281.613281 349.886719 281.980469 349.632812 281.980469 349.558594 C 281.980469 349.265625 281.796875 349.339844 281.027344 349.960938 Z M 278.246094 351.425781 C 276.859375 352.160156 276.929688 352.449219 278.320312 351.753906 C 278.941406 351.425781 279.417969 351.097656 279.417969 351.023438 C 279.417969 350.765625 279.382812 350.804688 278.246094 351.425781 Z M 278.246094 351.425781 " fill-opacity="1" fill-rule="nonzero"/></svg>